<svg width="287" height="236" viewBox="-50 -50 300 300" fill="none" xmlns="http://www.w3.org/2000/svg">
<path fill-rule="evenodd" clip-rule="evenodd" d="M92 0.913697C90.625 1.3537 87.363 1.75869 84.75 1.81369C82.137 1.86869 80 2.2647 80 2.6937C80 3.1227 77.75 4.3467 75 5.4137C72.25 6.4807 70 7.6077 70 7.9187C70 8.2287 68.537 9.3327 66.75 10.3727C59.047 14.8537 46 32.7927 46 38.9037C46 39.9447 45.55 41.0737 45 41.4137C44.45 41.7537 44 45.3797 44 49.4727V56.9137H75.531C111.428 56.9137 109.796 56.4677 106.144 65.2797C104.965 68.1247 104 71.0127 104 71.6967C104 72.3807 103.59 73.7227 103.089 74.6777C102.587 75.6327 101.42 78.6637 100.494 81.4137C99.569 84.1637 98.148 87.9887 97.338 89.9137C94.552 96.5327 94.224 97.4257 92.94 101.914C92.232 104.389 91.28 106.842 90.826 107.364C90.372 107.887 89.997 109.012 89.994 109.864C89.99 110.717 89.315 112.703 88.494 114.278C87.672 115.854 87 117.766 87 118.528C87 119.29 86.55 119.914 86 119.914C85.45 119.914 85 121.024 85 122.38C85 123.736 84.263 126.549 83.361 128.63C82.46 130.711 81.398 133.314 81 134.414C80.602 135.514 79.54 138.117 78.639 140.198C77.737 142.279 77 144.648 77 145.461C77 146.275 76.578 147.723 76.062 148.678C75.546 149.633 73.897 153.789 72.398 157.914C70.899 162.039 69.296 165.564 68.836 165.747C68.376 165.931 68 167.421 68 169.059C68 171.931 65.916 177.273 60.254 188.914C57.343 194.9 47.166 205.615 42.031 208.102L38.863 209.636L42.681 210.237C50.752 211.506 60.313 207.417 67.73 199.526C72.286 194.678 80 181.332 80 178.298C80 177.522 80.405 176.105 80.9 175.15C81.395 174.195 83.69 168.239 86 161.914C88.31 155.589 90.605 149.633 91.1 148.678C91.595 147.723 92 146.311 92 145.542C92 144.772 92.672 142.854 93.494 141.278C94.315 139.703 94.99 137.626 94.994 136.664C94.997 135.702 95.45 134.914 96 134.914C96.55 134.914 97 134.136 97 133.185C97 131.644 100.722 120.69 103.038 115.414C103.521 114.314 105.523 108.914 107.487 103.414C109.45 97.9137 111.654 92.0637 112.384 90.4137C113.114 88.7637 114.253 85.6137 114.916 83.4137C116.022 79.7447 117.612 75.4267 120.254 68.9137C120.811 67.5387 121.605 65.5137 122.016 64.4137C123.983 59.1597 129.257 45.2737 129.707 44.1637C130.106 43.1787 123.413 42.9137 98.189 42.9137C80.575 42.9137 65.452 42.6407 64.582 42.3067C60.88 40.8857 63.874 32.0957 70.19 25.8427C73.903 22.1667 80.925 18.2687 87.899 16.0127C91.505 14.8467 152.503 14.4017 155.418 15.5207C157.11 16.1697 157.562 19.8927 156.14 21.4637C155.667 21.9857 154.487 24.8887 153.519 27.9137C152.551 30.9387 151.454 34.0887 151.082 34.9137C150.71 35.7387 149.546 39.0017 148.496 42.1637C147.445 45.3257 146.229 47.9137 145.793 47.9137C145.357 47.9137 144.993 48.7007 144.985 49.6637C144.971 51.4127 142.741 58.6367 141.051 62.4137C140.558 63.5137 139.371 66.6637 138.412 69.4137C137.454 72.1637 136.294 74.8417 135.835 75.3637C135.376 75.8867 135 77.3547 135 78.6277C135 79.8997 134.559 81.7227 134.02 82.6777C132.388 85.5677 126 102.212 126 103.574C126 104.76 123.895 110.161 121.878 114.15C121.395 115.105 121 116.532 121 117.319C121 118.107 120.368 120.026 119.596 121.583C118.824 123.14 117.29 127.114 116.189 130.414C112.68 140.922 106.312 158.43 105.261 160.456C104.702 161.533 103.688 164.214 103.008 166.414C101.436 171.494 99.246 176.714 97.345 179.914C96.528 181.289 95.343 183.652 94.711 185.164C94.079 186.676 93.21 187.914 92.781 187.914C92.351 187.914 92 188.481 92 189.174C92 189.867 90.987 191.555 89.75 192.924C88.512 194.294 86.166 197.214 84.536 199.414C82.906 201.614 81.106 203.885 80.536 204.462C78.079 206.946 68.217 213.914 67.159 213.914C66.522 213.914 66 214.305 66 214.782C66 215.747 56.845 218.389 50.227 219.335C45.168 220.057 33.891 218.426 29.986 216.407C25.871 214.279 19.285 207.392 16.906 202.731C15.137 199.262 14.816 196.867 14.847 187.343C14.886 175.192 15.911 171.763 21.403 165.414C22.83 163.764 23.998 162.077 23.999 161.664C23.999 161.251 24.675 160.914 25.5 160.914C26.325 160.914 27 160.532 27 160.066C27 159.599 28.784 158.413 30.965 157.43C34.311 155.921 35.394 155.835 37.907 156.875C44.788 159.726 42.222 170.883 32.596 179.962C30.618 181.828 29 183.705 29 184.134C29 184.563 32.15 184.914 36 184.914C40 184.914 43 184.485 43 183.914C43 183.364 43.591 182.914 44.313 182.914C45.998 182.914 50.037 178.58 53.379 173.184C55.553 169.676 56 167.762 56 161.973C56 155.122 55.923 154.915 51.886 150.919C49.624 148.679 46.194 146.186 44.264 145.38C40.08 143.632 33.175 143.477 29.297 145.045C24.683 146.91 19.641 149.35 18.203 150.414C14.342 153.271 8.265 160.081 6.51 163.517C5.415 165.66 4.251 167.639 3.924 167.914C2.547 169.07 0 182.317 0 188.321C0 198.456 3.422 209.799 7.934 214.622C9.07 215.837 10 217.089 10 217.406C10 218.364 15.999 223.914 17.034 223.914C17.566 223.914 18 224.269 18 224.703C18 225.638 26.993 230.159 32.071 231.776C36.494 233.185 57.646 233.296 58.5 231.914C58.84 231.364 59.962 230.914 60.993 230.914C63.364 230.914 75 225.911 75 224.892C75 224.473 76.125 223.848 77.5 223.503C78.875 223.158 80 222.434 80 221.895C80 221.355 80.495 220.914 81.101 220.914C82.269 220.914 97 206.63 97 205.497C97 204.861 97.99 203.528 100.75 200.451C101.438 199.684 102 198.575 102 197.985C102 197.396 102.353 196.914 102.785 196.914C103.217 196.914 104.904 194.327 106.535 191.164C108.166 188.001 109.725 185.189 110 184.914C111.074 183.84 113.991 177.16 115.576 172.149C116.491 169.253 117.636 166.639 118.12 166.34C118.604 166.041 119 164.698 119 163.355C119 162.012 119.352 160.914 119.782 160.914C120.212 160.914 121.184 158.777 121.943 156.164C126.114 141.804 125.816 141.914 160.487 141.914C190.537 141.914 193 142.296 193 146.952C193 149.815 192.066 152.474 186.692 164.914C185.86 166.839 184.677 170.308 184.063 172.622C183.448 174.936 182.508 177.1 181.973 177.431C181.438 177.761 181 178.893 181 179.945C181 180.996 179.875 184.401 178.5 187.51C177.125 190.619 176 194.007 176 195.038C176 196.07 175.581 196.914 175.07 196.914C174.558 196.914 173.995 197.902 173.82 199.111C173.643 200.324 171.037 203.307 168 205.774C162.454 210.277 159.096 215.491 159.034 219.696C158.94 226.007 164.883 232.998 171.963 234.904C175.006 235.723 176.851 235.601 180.585 234.333C185.666 232.608 186.558 231.927 189.263 227.699C191.463 224.26 191.516 216.832 189.38 211.239C187.706 206.855 188.11 198.582 190.058 197.378C190.576 197.058 191 195.916 191 194.841C191 193.766 191.44 192.105 191.979 191.15C193.619 188.24 198 176.656 198 175.228C198 174.49 198.409 173.105 198.91 172.15C200.947 168.264 205 157.681 205 156.249C205 154.813 207.01 149.609 209.084 145.678C209.588 144.723 210.014 143.148 210.032 142.178C210.049 141.208 210.724 139.54 211.532 138.473C212.339 137.405 213 135.827 213 134.966C213 133.655 217.785 120.54 220.863 113.414C221.338 112.314 222.526 108.939 223.503 105.914C224.48 102.889 225.667 99.9867 226.14 99.4637C226.613 98.9417 227 97.7877 227 96.9007C227 96.0137 228.107 92.9937 229.46 90.1897C231.253 86.4717 236.794 80.2587 249.916 67.2527C259.814 57.4407 268.72 48.6597 269.706 47.7367C276.974 40.9447 283.588 32.6667 285.784 27.6167C287.349 24.0167 287.347 15.8017 285.779 12.2107C283.994 8.12069 277.956 2.3427 274.5 1.4167C270.785 0.422703 259.604 0.409699 255.286 1.3967C251.325 2.3007 243.779 10.1177 241.93 15.2307C241.197 17.2567 240.239 18.9137 239.799 18.9137C239.36 18.9137 239 19.7007 238.999 20.6637C238.998 22.6217 235.818 31.4297 234.713 32.5347C234.321 32.9267 234.001 34.1847 234.003 35.3307C234.004 36.4767 232.827 40.3387 231.386 43.9137C228.221 51.7657 228.178 51.8807 223.581 64.4137C221.563 69.9137 219.257 75.6877 218.456 77.2447C217.655 78.8017 217 80.8547 217 81.8057C217 82.7577 216.077 84.5277 214.948 85.7387C212.905 87.9317 212.757 87.9397 180.712 87.6777C150.111 87.4267 148.509 87.3207 148.165 85.5327C147.966 84.4977 148.262 82.6977 148.824 81.5327C149.385 80.3667 150.629 77.1637 151.588 74.4137C152.546 71.6637 153.706 68.9857 154.165 68.4637C154.624 67.9407 155 66.6977 155 65.6997C155 64.7027 155.401 63.1047 155.892 62.1497C157.502 59.0167 164 41.4027 164 40.1717C164 39.5097 165.163 36.3687 166.585 33.1907C171.398 22.4337 172 20.8497 172 18.9387C172 17.8897 172.45 16.7537 173 16.4137C173.55 16.0737 174.004 15.0347 174.009 14.1047C174.014 13.1747 175.125 10.1637 176.478 7.4137C177.831 4.6637 178.952 1.8517 178.969 1.1637C178.993 0.181697 169.952 -0.065297 136.75 0.013703C113.512 0.068703 93.375 0.473697 92 0.913697ZM269.686 16.0877C274.719 20.8167 272.133 26.0857 257.828 40.2507C247.365 50.6107 244.481 51.9037 245.66 45.7017C246.004 43.8937 246.896 41.1987 247.643 39.7137C248.389 38.2277 249 36.0907 249 34.9637C249 33.8357 249.45 32.9137 250 32.9137C250.55 32.9137 251 32.2957 251 31.5407C251 28.8457 255.273 20.5717 258.36 17.2897C262.118 13.2927 266.244 12.8557 269.686 16.0877ZM207.653 104.452C208.358 106.289 205.531 114.641 201.18 123.575C200.134 125.725 198.699 126.924 196.696 127.325C195.076 127.649 181.013 127.914 165.446 127.914C141.049 127.914 136.926 127.697 135.571 126.343C134.707 125.478 134 124.595 134 124.38C134 123.579 138.141 112.349 139.053 110.678C139.574 109.723 140 108.445 140 107.838C140 107.231 141.012 105.89 142.25 104.858C144.343 103.111 146.677 102.978 175.781 102.947C203.026 102.918 207.139 103.112 207.653 104.452ZM179.571 215.343C181.833 217.604 181.323 221.656 178.549 223.474C173.638 226.692 168.218 221.613 171.005 216.405C172.533 213.55 177.2 212.971 179.571 215.343Z" fill="black"/>
</svg>
