<svg width="583" height="97" viewBox="0 0 583 97" fill="none" xmlns="http://www.w3.org/2000/svg">
<path d="M4.59961 22.168H31.2598V75.3418C31.2598 78.7272 30.7878 81.722 29.8438 84.3262C28.9323 86.9303 27.5977 89.1113 25.8398 90.8691C24.0495 92.6595 21.8685 94.0104 19.2969 94.9219C16.7578 95.8659 13.8607 96.3379 10.6055 96.3379C9.59635 96.3379 8.61979 96.3216 7.67578 96.2891C6.73177 96.2565 5.80404 96.2077 4.89258 96.1426C4.14388 96.0775 3.39518 95.9798 2.64648 95.8496C1.89779 95.752 1.11654 95.638 0.302734 95.5078L0.9375 88.0859C1.49089 88.1836 2.19076 88.265 3.03711 88.3301C3.88346 88.4277 4.74609 88.4928 5.625 88.5254C6.47135 88.5905 7.28516 88.623 8.06641 88.623C8.88021 88.6556 9.51497 88.6719 9.9707 88.6719C11.6634 88.6719 13.2585 88.444 14.7559 87.9883C16.2533 87.5651 17.5553 86.8327 18.6621 85.791C19.7689 84.7493 20.6315 83.3659 21.25 81.6406C21.901 79.9479 22.2266 77.8483 22.2266 75.3418V30.0293H4.59961V22.168ZM20.957 8.25195C20.957 6.78711 21.3965 5.55013 22.2754 4.54102C23.1543 3.49935 24.5052 2.97852 26.3281 2.97852C28.151 2.97852 29.5182 3.49935 30.4297 4.54102C31.3411 5.55013 31.7969 6.78711 31.7969 8.25195C31.7969 9.7168 31.3411 10.9538 30.4297 11.9629C29.5182 12.9395 28.151 13.4277 26.3281 13.4277C24.5052 13.4277 23.1543 12.9395 22.2754 11.9629C21.3965 10.9538 20.957 9.7168 20.957 8.25195ZM56.0156 48.0957C56.0156 44.2871 56.569 40.7552 57.6758 37.5C58.7826 34.2122 60.3776 31.3639 62.4609 28.9551C64.5117 26.5462 67.0182 24.6582 69.9805 23.291C72.9427 21.8913 76.2793 21.1914 79.9902 21.1914C83.7337 21.1914 87.0866 21.8913 90.0488 23.291C93.0436 24.6582 95.5827 26.5462 97.666 28.9551C99.7168 31.3639 101.296 34.2122 102.402 37.5C103.509 40.7552 104.062 44.2871 104.062 48.0957V49.1699C104.062 52.9785 103.509 56.5104 102.402 59.7656C101.296 63.0208 99.7168 65.8529 97.666 68.2617C95.5827 70.6706 93.0599 72.5586 90.0977 73.9258C87.1354 75.293 83.7988 75.9766 80.0879 75.9766C76.3444 75.9766 72.9753 75.293 69.9805 73.9258C67.0182 72.5586 64.5117 70.6706 62.4609 68.2617C60.3776 65.8529 58.7826 63.0208 57.6758 59.7656C56.569 56.5104 56.0156 52.9785 56.0156 49.1699V48.0957ZM65.0488 49.1699C65.0488 51.7741 65.3581 54.2643 65.9766 56.6406C66.5951 58.9844 67.5391 61.0514 68.8086 62.8418C70.0456 64.6322 71.6081 66.0482 73.4961 67.0898C75.3841 68.1315 77.5814 68.6523 80.0879 68.6523C82.5618 68.6523 84.7266 68.1315 86.582 67.0898C88.4701 66.0482 90.0488 64.6322 91.3184 62.8418C92.5553 61.0514 93.4831 58.9844 94.1016 56.6406C94.7201 54.2643 95.0293 51.7741 95.0293 49.1699V48.0957C95.0293 45.5241 94.7038 43.0664 94.0527 40.7227C93.4342 38.3464 92.5065 36.263 91.2695 34.4727C90 32.6823 88.4212 31.2663 86.5332 30.2246C84.6777 29.1504 82.4967 28.6133 79.9902 28.6133C77.4837 28.6133 75.3027 29.1504 73.4473 30.2246C71.5918 31.2663 70.0456 32.6823 68.8086 34.4727C67.5391 36.263 66.5951 38.3464 65.9766 40.7227C65.3581 43.0664 65.0488 45.5241 65.0488 48.0957V49.1699ZM153.721 60.9863C153.721 59.9121 153.509 58.9518 153.086 58.1055C152.663 57.2266 151.947 56.429 150.938 55.7129C149.928 54.9967 148.594 54.3457 146.934 53.7598C145.273 53.1413 143.206 52.5879 140.732 52.0996C137.705 51.4811 134.938 50.7324 132.432 49.8535C129.958 48.9746 127.842 47.9167 126.084 46.6797C124.294 45.4753 122.91 44.0592 121.934 42.4316C120.957 40.7715 120.469 38.8509 120.469 36.6699C120.469 34.5215 120.973 32.5195 121.982 30.6641C122.992 28.776 124.408 27.1322 126.23 25.7324C128.053 24.3327 130.218 23.2259 132.725 22.4121C135.264 21.5983 138.047 21.1914 141.074 21.1914C144.329 21.1914 147.259 21.6146 149.863 22.4609C152.467 23.3073 154.681 24.4792 156.504 25.9766C158.327 27.474 159.727 29.2318 160.703 31.25C161.712 33.2357 162.217 35.3841 162.217 37.6953H153.184C153.184 36.556 152.891 35.4492 152.305 34.375C151.719 33.2682 150.905 32.2917 149.863 31.4453C148.822 30.599 147.552 29.9154 146.055 29.3945C144.59 28.8737 142.93 28.6133 141.074 28.6133C139.154 28.6133 137.461 28.8249 135.996 29.248C134.564 29.6712 133.376 30.2409 132.432 30.957C131.455 31.6732 130.723 32.5033 130.234 33.4473C129.746 34.3913 129.502 35.3678 129.502 36.377C129.502 37.4186 129.697 38.3464 130.088 39.1602C130.479 39.974 131.162 40.7064 132.139 41.3574C133.083 42.0085 134.352 42.5944 135.947 43.1152C137.575 43.6361 139.626 44.1406 142.1 44.6289C145.355 45.3125 148.268 46.11 150.84 47.0215C153.411 47.9004 155.576 48.9583 157.334 50.1953C159.092 51.4648 160.426 52.9297 161.338 54.5898C162.282 56.25 162.754 58.1706 162.754 60.3516C162.754 62.6953 162.217 64.8275 161.143 66.748C160.101 68.6686 158.636 70.3125 156.748 71.6797C154.86 73.0469 152.598 74.1048 149.961 74.8535C147.324 75.6022 144.443 75.9766 141.318 75.9766C137.738 75.9766 134.548 75.5046 131.748 74.5605C128.949 73.584 126.589 72.2982 124.668 70.7031C122.715 69.1406 121.217 67.3177 120.176 65.2344C119.167 63.151 118.662 60.9863 118.662 58.7402H127.695C127.826 60.5957 128.314 62.1582 129.16 63.4277C130.039 64.6973 131.13 65.7227 132.432 66.5039C133.701 67.2852 135.117 67.8385 136.68 68.1641C138.242 68.4896 139.788 68.6523 141.318 68.6523C143.727 68.6523 145.827 68.3757 147.617 67.8223C149.408 67.2363 150.807 66.4388 151.816 65.4297C152.435 64.8112 152.907 64.1276 153.232 63.3789C153.558 62.6302 153.721 61.8327 153.721 60.9863ZM187.705 30.0293C188.421 28.9551 189.219 27.9785 190.098 27.0996C190.977 26.1882 191.904 25.3906 192.881 24.707C194.443 23.5677 196.152 22.7051 198.008 22.1191C199.896 21.5332 201.898 21.224 204.014 21.1914C206.781 21.1914 209.287 21.5983 211.533 22.4121C213.812 23.1934 215.749 24.4303 217.344 26.123C218.939 27.8158 220.16 29.9642 221.006 32.5684C221.885 35.14 222.324 38.1999 222.324 41.748V75H213.291V41.6504C213.291 39.5671 213.047 37.7441 212.559 36.1816C212.07 34.5866 211.354 33.2682 210.41 32.2266C209.401 31.0872 208.132 30.2409 206.602 29.6875C205.072 29.1016 203.314 28.8249 201.328 28.8574C199.701 28.8574 198.154 29.0853 196.689 29.541C195.225 29.9967 193.874 30.6478 192.637 31.4941C191.66 32.1452 190.749 32.9102 189.902 33.7891C189.089 34.6354 188.356 35.5794 187.705 36.6211V75H178.672V0H187.705V30.0293ZM273.545 75L273.008 67.7246C271.25 70.3288 269.053 72.3633 266.416 73.8281C263.779 75.2604 260.736 75.9766 257.285 75.9766C254.518 75.9766 252.012 75.5534 249.766 74.707C247.52 73.8281 245.599 72.4772 244.004 70.6543C242.409 68.8314 241.172 66.5202 240.293 63.7207C239.447 60.8887 239.023 57.5033 239.023 53.5645V22.168H248.057V53.6621C248.057 56.5267 248.285 58.903 248.74 60.791C249.196 62.679 249.88 64.1764 250.791 65.2832C251.702 66.4225 252.809 67.2201 254.111 67.6758C255.446 68.1315 256.976 68.3594 258.701 68.3594C260.719 68.3594 262.526 68.1315 264.121 67.6758C265.716 67.1875 267.1 66.5202 268.271 65.6738C269.248 64.9902 270.094 64.1764 270.811 63.2324C271.559 62.2559 272.178 61.1979 272.666 60.0586V22.168H281.748V75H273.545ZM333.506 75C333.148 74.3164 332.855 73.4701 332.627 72.4609C332.432 71.4193 332.285 70.3451 332.188 69.2383C331.276 70.1497 330.251 71.0124 329.111 71.8262C328.005 72.64 326.784 73.3561 325.449 73.9746C324.082 74.5931 322.633 75.0814 321.104 75.4395C319.574 75.7975 317.946 75.9766 316.221 75.9766C313.421 75.9766 310.882 75.5697 308.604 74.7559C306.357 73.9421 304.453 72.8353 302.891 71.4355C301.296 70.0684 300.059 68.4408 299.18 66.5527C298.333 64.6322 297.91 62.5651 297.91 60.3516C297.91 57.4544 298.48 54.9154 299.619 52.7344C300.791 50.5534 302.435 48.7305 304.551 47.2656C306.667 45.8333 309.206 44.7591 312.168 44.043C315.163 43.3268 318.499 42.9688 322.178 42.9688H332.041V38.8184C332.041 37.2233 331.748 35.791 331.162 34.5215C330.576 33.252 329.746 32.1615 328.672 31.25C327.598 30.3711 326.279 29.6875 324.717 29.1992C323.187 28.7109 321.462 28.4668 319.541 28.4668C317.751 28.4668 316.139 28.6947 314.707 29.1504C313.307 29.6061 312.119 30.2083 311.143 30.957C310.166 31.7057 309.401 32.6009 308.848 33.6426C308.327 34.6517 308.066 35.7096 308.066 36.8164H298.984C299.017 34.8958 299.505 33.0078 300.449 31.1523C301.426 29.2969 302.826 27.6204 304.648 26.123C306.439 24.6582 308.62 23.4701 311.191 22.5586C313.796 21.6471 316.742 21.1914 320.029 21.1914C323.024 21.1914 325.807 21.5658 328.379 22.3145C330.951 23.0306 333.18 24.1211 335.068 25.5859C336.924 27.0833 338.389 28.9388 339.463 31.1523C340.537 33.3659 341.074 35.9538 341.074 38.916V63.4766C341.074 65.2344 341.237 67.1061 341.562 69.0918C341.888 71.0449 342.344 72.7539 342.93 74.2188V75H333.506ZM317.539 68.1152C319.297 68.1152 320.941 67.8874 322.471 67.4316C324.001 66.9759 325.4 66.3737 326.67 65.625C327.907 64.8763 328.981 64.0299 329.893 63.0859C330.804 62.1094 331.52 61.1003 332.041 60.0586V49.3652H323.643C320.518 49.3652 317.783 49.6419 315.439 50.1953C313.128 50.7161 311.289 51.5299 309.922 52.6367C308.945 53.418 308.197 54.3457 307.676 55.4199C307.188 56.4941 306.943 57.7148 306.943 59.082C306.943 60.3841 307.155 61.5885 307.578 62.6953C308.034 63.8021 308.701 64.7461 309.58 65.5273C310.459 66.3411 311.566 66.9759 312.9 67.4316C314.235 67.8874 315.781 68.1152 317.539 68.1152ZM380.234 9.375V22.168H400.352V29.1504H380.234V57.8613C380.234 59.9121 380.495 61.6048 381.016 62.9395C381.536 64.2741 382.253 65.332 383.164 66.1133C384.076 66.9271 385.117 67.4967 386.289 67.8223C387.493 68.1478 388.763 68.3105 390.098 68.3105C391.074 68.3105 392.083 68.2617 393.125 68.1641C394.167 68.0339 395.192 67.8874 396.201 67.7246C397.178 67.5618 398.089 67.3991 398.936 67.2363C399.814 67.041 400.531 66.8783 401.084 66.748L402.354 73.1445C401.605 73.6003 400.693 74.0072 399.619 74.3652C398.545 74.6908 397.373 74.9674 396.104 75.1953C394.834 75.4557 393.483 75.651 392.051 75.7812C390.651 75.9115 389.251 75.9766 387.852 75.9766C385.508 75.9766 383.311 75.651 381.26 75C379.242 74.3164 377.484 73.2422 375.986 71.7773C374.489 70.3451 373.301 68.4896 372.422 66.2109C371.576 63.8997 371.152 61.1165 371.152 57.8613V29.1504H357.285V22.168H371.152V9.375H380.234ZM442.246 75.9766C438.535 75.9766 435.117 75.3418 431.992 74.0723C428.9 72.8027 426.247 71.0286 424.033 68.75C421.82 66.4714 420.094 63.7695 418.857 60.6445C417.62 57.5195 417.002 54.1178 417.002 50.4395V48.3887C417.002 44.1243 417.686 40.3158 419.053 36.9629C420.42 33.5775 422.243 30.7129 424.521 28.3691C426.768 26.0579 429.323 24.2839 432.188 23.0469C435.085 21.8099 438.047 21.1914 441.074 21.1914C444.883 21.1914 448.203 21.8587 451.035 23.1934C453.9 24.4954 456.276 26.3021 458.164 28.6133C460.052 30.957 461.452 33.7077 462.363 36.8652C463.307 40.0228 463.779 43.4408 463.779 47.1191V51.1719H426.035V51.5137C426.263 54.0853 426.768 56.3477 427.549 58.3008C428.363 60.2539 429.469 61.9792 430.869 63.4766C432.301 65.0716 434.027 66.3249 436.045 67.2363C438.063 68.1478 440.293 68.6035 442.734 68.6035C445.957 68.6035 448.822 67.9525 451.328 66.6504C453.835 65.3483 455.918 63.623 457.578 61.4746L463.096 65.7715C461.338 68.4408 458.701 70.8171 455.186 72.9004C451.702 74.9512 447.389 75.9766 442.246 75.9766ZM441.074 28.6133C439.251 28.6133 437.526 28.9551 435.898 29.6387C434.271 30.2897 432.806 31.25 431.504 32.5195C430.202 33.8216 429.095 35.4167 428.184 37.3047C427.305 39.1602 426.686 41.3086 426.328 43.75H454.746V43.3105C454.746 41.6829 454.437 39.9414 453.818 38.0859C453.2 36.1979 452.337 34.5703 451.23 33.2031C450.124 31.8359 448.724 30.7292 447.031 29.8828C445.371 29.0365 443.385 28.6133 441.074 28.6133ZM501.475 68.6523C503.102 68.6523 504.681 68.3919 506.211 67.8711C507.773 67.3503 509.157 66.6178 510.361 65.6738C511.566 64.7624 512.526 63.6882 513.242 62.4512C513.991 61.1816 514.382 59.8145 514.414 58.3496H522.959C522.926 60.6934 522.308 62.9395 521.104 65.0879C519.932 67.2038 518.353 69.0592 516.367 70.6543C514.382 72.2819 512.103 73.584 509.531 74.5605C506.96 75.5046 504.274 75.9766 501.475 75.9766C497.471 75.9766 493.971 75.2604 490.977 73.8281C487.982 72.3958 485.492 70.459 483.506 68.0176C481.488 65.6087 479.974 62.8255 478.965 59.668C477.956 56.4779 477.451 53.125 477.451 49.6094V47.5586C477.451 44.0755 477.956 40.7389 478.965 37.5488C479.974 34.3587 481.488 31.543 483.506 29.1016C485.492 26.6927 487.982 24.7721 490.977 23.3398C493.971 21.9076 497.471 21.1914 501.475 21.1914C504.6 21.1914 507.464 21.696 510.068 22.7051C512.705 23.6816 514.984 25.0163 516.904 26.709C518.792 28.4342 520.273 30.4688 521.348 32.8125C522.422 35.1562 522.959 37.6628 522.959 40.332H514.414C514.382 38.737 514.023 37.2396 513.34 35.8398C512.689 34.4076 511.794 33.1543 510.654 32.0801C509.515 31.0059 508.148 30.1595 506.553 29.541C504.99 28.9225 503.298 28.6133 501.475 28.6133C498.675 28.6133 496.315 29.1829 494.395 30.3223C492.507 31.429 490.977 32.8776 489.805 34.668C488.633 36.4909 487.786 38.5254 487.266 40.7715C486.777 43.0176 486.533 45.2799 486.533 47.5586V49.6094C486.533 51.9206 486.777 54.2155 487.266 56.4941C487.786 58.7402 488.633 60.7585 489.805 62.5488C490.944 64.3717 492.458 65.8529 494.346 66.9922C496.266 68.099 498.643 68.6523 501.475 68.6523ZM548.057 30.0293C548.773 28.9551 549.57 27.9785 550.449 27.0996C551.328 26.1882 552.256 25.3906 553.232 24.707C554.795 23.5677 556.504 22.7051 558.359 22.1191C560.247 21.5332 562.249 21.224 564.365 21.1914C567.132 21.1914 569.639 21.5983 571.885 22.4121C574.163 23.1934 576.1 24.4303 577.695 26.123C579.29 27.8158 580.511 29.9642 581.357 32.5684C582.236 35.14 582.676 38.1999 582.676 41.748V75H573.643V41.6504C573.643 39.5671 573.398 37.7441 572.91 36.1816C572.422 34.5866 571.706 33.2682 570.762 32.2266C569.753 31.0872 568.483 30.2409 566.953 29.6875C565.423 29.1016 563.665 28.8249 561.68 28.8574C560.052 28.8574 558.506 29.0853 557.041 29.541C555.576 29.9967 554.225 30.6478 552.988 31.4941C552.012 32.1452 551.1 32.9102 550.254 33.7891C549.44 34.6354 548.708 35.5794 548.057 36.6211V75H539.023V0H548.057V30.0293Z" fill="black"/>
</svg>
